<?xml version="1.0" encoding="UTF-8" standalone="no"?>
<svg
   xmlns:dc="http://purl.org/dc/elements/1.1/"
   xmlns:cc="http://creativecommons.org/ns#"
   xmlns:rdf="http://www.w3.org/1999/02/22-rdf-syntax-ns#"
   xmlns:svg="http://www.w3.org/2000/svg"
   xmlns="http://www.w3.org/2000/svg"
   viewBox="0 0 656 232"
   height="232"
   width="656"
   xml:space="preserve"
   id="svg2"
   version="1.1"><metadata
     id="metadata8"><rdf:RDF><cc:Work
         rdf:about=""><dc:format>image/svg+xml</dc:format><dc:type
           rdf:resource="http://purl.org/dc/dcmitype/StillImage" /><dc:title></dc:title></cc:Work></rdf:RDF></metadata><defs
     id="defs6"><clipPath
       id="clipPath18"
       clipPathUnits="userSpaceOnUse"><path
         style="clip-rule:evenodd"
         id="path16"
         d="M 0,0 H 2050 V 724.23352 H 0 Z" /></clipPath><clipPath
       id="clipPath30"
       clipPathUnits="userSpaceOnUse"><path
         style="clip-rule:evenodd"
         id="path28"
         d="M 0,0 H 2050 V 721.24084 H 0 Z" /></clipPath></defs><g
     transform="matrix(0.31999998,0,0,0.31999998,0,5.8e-6)"
     id="g10"><g
       id="g12"><g
         clip-path="url(#clipPath18)"
         id="g14"><g
           transform="scale(2.9927006)"
           id="g20"><path
             id="path22"
             style="fill:#ffffff;fill-opacity:1;fill-rule:nonzero;stroke:none"
             d="M 0,0 H 685 V 242 H 0 Z" /></g></g></g><g
       id="g24"><g
         clip-path="url(#clipPath30)"
         id="g26"><g
           transform="matrix(2.9927006,0,0,2.9927006,1.4963503,1.4963503)"
           id="g32"><path
             id="path34"
             style="fill:none;stroke:#000000;stroke-width:1;stroke-linecap:butt;stroke-linejoin:miter;stroke-miterlimit:10;stroke-dasharray:none;stroke-opacity:1"
             d="m 122,50 h 23 v 50 h 33.63" /><path
             id="path36"
             style="fill:#000000;fill-opacity:1;fill-rule:nonzero;stroke:none"
             d="m 183.88,100 -7,3.5 1.75,-3.5 -1.75,-3.5 z" /><path
             id="path38"
             style="fill:none;stroke:#000000;stroke-width:1;stroke-linecap:butt;stroke-linejoin:miter;stroke-miterlimit:10;stroke-dasharray:none;stroke-opacity:1"
             d="m 183.88,100 -7,3.5 1.75,-3.5 -1.75,-3.5 z" /><path
             id="path40"
             style="fill:#f5f5f5;fill-opacity:1;fill-rule:nonzero;stroke:none"
             d="M 2,30 H 122 V 70 H 2 Z" /><path
             id="path42"
             style="fill:none;stroke:#666666;stroke-width:1;stroke-linecap:butt;stroke-linejoin:miter;stroke-miterlimit:10;stroke-dasharray:none;stroke-opacity:1"
             d="M 2,30 H 122 V 70 H 2 Z" /></g><g
           transform="matrix(2.9927006,0,0,2.9927006,68.832115,131.67883)"
           id="g44"><text
             id="text48"
             style="font-variant:normal;font-weight:normal;font-size:12px;font-family:Helvetica;-inkscape-font-specification:Helvetica;writing-mode:lr-tb;fill:#000000;fill-opacity:1;fill-rule:nonzero;stroke:none"
             transform="translate(0.96875,11)"><tspan
               id="tspan46"
               y="0"
               x="0 6.6738281 9.3398438 15.339844 18.673828 25.347656 29.34375 32.677734 39.351562 46.025391 49.359375 55.359375 58.025391 64.699219 71.373047">distorted video</tspan></text>
</g><g
           transform="matrix(2.9927006,0,0,2.9927006,1.4963503,1.4963503)"
           id="g50"><path
             id="path52"
             style="fill:none;stroke:#000000;stroke-width:1;stroke-linecap:butt;stroke-linejoin:miter;stroke-miterlimit:10;stroke-dasharray:none;stroke-opacity:1"
             d="m 122,100 h 43 13.63" /><path
             id="path54"
             style="fill:#000000;fill-opacity:1;fill-rule:nonzero;stroke:none"
             d="m 183.88,100 -7,3.5 1.75,-3.5 -1.75,-3.5 z" /><path
             id="path56"
             style="fill:none;stroke:#000000;stroke-width:1;stroke-linecap:butt;stroke-linejoin:miter;stroke-miterlimit:10;stroke-dasharray:none;stroke-opacity:1"
             d="m 183.88,100 -7,3.5 1.75,-3.5 -1.75,-3.5 z" /><path
             id="path58"
             style="fill:#f5f5f5;fill-opacity:1;fill-rule:nonzero;stroke:none"
             d="m 2,80 h 120 v 40 H 2 Z" /><path
             id="path60"
             style="fill:#666666;fill-opacity:1;fill-rule:nonzero;stroke:none"
             d="m 8,79.5 h 3 v 1 H 8 Z m 6,0 h 3 v 1 h -3 z m 6,0 h 3 v 1 h -3 z m 6,0 h 3 v 1 h -3 z m 6,0 h 3 v 1 h -3 z m 6,0 h 3 v 1 h -3 z m 6,0 h 3 v 1 h -3 z m 6,0 h 3 v 1 h -3 z m 6,0 h 3 v 1 h -3 z m 6,0 h 3 v 1 h -3 z m 6,0 h 3 v 1 h -3 z m 6,0 h 3 v 1 h -3 z m 6,0 h 3 v 1 h -3 z m 6,0 h 3 v 1 h -3 z m 6,0 h 3 v 1 h -3 z m 6,0 h 3 v 1 h -3 z m 6,0 h 3 v 1 h -3 z m 6,0 h 3 v 1 h -3 z m 6,0 h 3 v 1 h -3 z m 6.5,0.5 v 3 h -1 v -3 z m 0,6 v 3 h -1 v -3 z m 0,6 v 3 h -1 v -3 z m 0,6 v 3 h -1 v -3 z m 0,6 v 3 h -1 v -3 z m 0,6 v 3 h -1 v -3 z m 0,6 v 3 h -1 v -3 z m -2.5,4.5 h -3 v -1 h 3 z m -6,0 h -3 v -1 h 3 z m -6,0 h -3 v -1 h 3 z m -6,0 h -3 v -1 h 3 z m -6,0 h -3 v -1 h 3 z m -6,0 h -3 v -1 h 3 z m -6,0 h -3 v -1 h 3 z m -6,0 h -3 v -1 h 3 z m -6,0 h -3 v -1 h 3 z m -6,0 h -3 v -1 h 3 z m -6,0 h -3 v -1 h 3 z m -6,0 h -3 v -1 h 3 z m -6,0 h -3 v -1 h 3 z m -6,0 h -3 v -1 h 3 z m -6,0 h -3 v -1 h 3 z m -6,0 h -3 v -1 h 3 z m -6,0 h -3 v -1 h 3 z m -6,0 h -3 v -1 h 3 z m -6,0 H 9 v -1 h 3 z m -6,0 H 3 v -1 H 6 Z M 1.5,118 v -3 h 1 v 3 z m 0,-6 v -3 h 1 v 3 z m 0,-6 v -3 h 1 v 3 z m 0,-6 v -3 h 1 v 3 z m 0,-6 v -3 h 1 v 3 z m 0,-6 v -3 h 1 v 3 z m 0,-6 V 79.5 H 5 v 1 H 2 V 80 h 0.5 v 2 z" /></g><g
           transform="matrix(2.9927006,0,0,2.9927006,62.84671,281.31384)"
           id="g62"><text
             id="text66"
             style="font-variant:normal;font-weight:normal;font-size:12px;font-family:Helvetica;-inkscape-font-specification:Helvetica;writing-mode:lr-tb;fill:#000000;fill-opacity:1;fill-rule:nonzero;stroke:none"
             transform="translate(0.640625,11)"><tspan
               id="tspan64"
               y="0"
               x="0 3.9960938 10.669922 14.003906 20.677734 24.673828 31.347656 38.021484 44.021484 50.695312 54.029297 60.029297 62.695312 69.369141 76.042969">reference video</tspan></text>
</g><g
           transform="matrix(2.9927006,0,0,2.9927006,1.4963503,1.4963503)"
           id="g68"><path
             id="path70"
             style="fill:#f5f5f5;fill-opacity:1;fill-rule:nonzero;stroke:none"
             d="M 185,30 H 325 V 180 H 185 Z" /><path
             id="path72"
             style="fill:none;stroke:#666666;stroke-width:1;stroke-linecap:butt;stroke-linejoin:miter;stroke-miterlimit:10;stroke-dasharray:none;stroke-opacity:1"
             d="M 185,30 H 325 V 180 H 185 Z" /><path
             id="path74"
             style="fill:none;stroke:#000000;stroke-width:1;stroke-linecap:butt;stroke-linejoin:miter;stroke-miterlimit:10;stroke-dasharray:none;stroke-opacity:1"
             d="M 122,220 H 527 V 176.37" /><path
             id="path76"
             style="fill:#000000;fill-opacity:1;fill-rule:nonzero;stroke:none"
             d="m 527,171.12 3.5,7 -3.5,-1.75 -3.5,1.75 z" /><path
             id="path78"
             style="fill:none;stroke:#000000;stroke-width:1;stroke-linecap:butt;stroke-linejoin:miter;stroke-miterlimit:10;stroke-dasharray:none;stroke-opacity:1"
             d="m 527,171.12 3.5,7 -3.5,-1.75 -3.5,1.75 z" /><path
             id="path80"
             style="fill:#ffe6cc;fill-opacity:1;fill-rule:nonzero;stroke:none"
             d="m 2,200 h 120 v 40 H 2 Z" /><path
             id="path82"
             style="fill:none;stroke:#d79b00;stroke-width:1;stroke-linecap:butt;stroke-linejoin:miter;stroke-miterlimit:10;stroke-dasharray:none;stroke-opacity:1"
             d="m 2,200 h 120 v 40 H 2 Z" /></g><g
           transform="matrix(2.9927006,0,0,2.9927006,80.802917,640.43793)"
           id="g84"><text
             id="text88"
             style="font-variant:normal;font-weight:normal;font-size:12px;font-family:Helvetica;-inkscape-font-specification:Helvetica;writing-mode:lr-tb;fill:#000000;fill-opacity:1;fill-rule:nonzero;stroke:none"
             transform="translate(0.53125,11)"><tspan
               id="tspan86"
               y="0"
               x="0 9.3339844 13.330078 20.003906 26.677734 33.351562 40.025391 43.359375 50.25 54.246094 60.919922 64.253906">Ground Truth</tspan></text>
</g><g
           transform="matrix(2.9927006,0,0,2.9927006,1.4963503,1.4963503)"
           id="g90"><path
             id="path92"
             style="fill:#dae8fc;fill-opacity:1;fill-rule:nonzero;stroke:none"
             d="m 195,40 h 120 v 60 H 195 Z" /><path
             id="path94"
             style="fill:none;stroke:#6c8ebf;stroke-width:1;stroke-linecap:butt;stroke-linejoin:miter;stroke-miterlimit:10;stroke-dasharray:none;stroke-opacity:1"
             d="m 195,40 h 120 v 60 H 195 Z" /></g><g
           transform="matrix(2.9927006,0,0,2.9927006,589.56201,170.58394)"
           id="g96"><text
             id="text100"
             style="font-variant:normal;font-weight:normal;font-size:12px;font-family:Helvetica;-inkscape-font-specification:Helvetica;writing-mode:lr-tb;fill:#000000;fill-opacity:1;fill-rule:nonzero;stroke:none"
             transform="translate(21.96875,11)"><tspan
               id="tspan98"
               y="0"
               x="0 9.9960938 16.669922 20.003906 22.669922 29.34375 36.017578 39.351562 46.025391 52.699219 58.699219 65.373047">motion based</tspan></text>
<text
             id="text104"
             style="font-variant:normal;font-weight:normal;font-size:12px;font-family:Helvetica;-inkscape-font-specification:Helvetica;writing-mode:lr-tb;fill:#000000;fill-opacity:1;fill-rule:nonzero;stroke:none"
             transform="translate(36.3125,25)"><tspan
               id="tspan102"
               y="0"
               x="0 3.3339844 10.007812 16.681641 20.015625 26.689453 30.685547 37.359375">features</tspan></text>
</g><g
           transform="matrix(2.9927006,0,0,2.9927006,1.4963503,1.4963503)"
           id="g106"><path
             id="path108"
             style="fill:#dae8fc;fill-opacity:1;fill-rule:nonzero;stroke:none"
             d="m 195,105 h 120 v 60 H 195 Z" /><path
             id="path110"
             style="fill:none;stroke:#6c8ebf;stroke-width:1;stroke-linecap:butt;stroke-linejoin:miter;stroke-miterlimit:10;stroke-dasharray:none;stroke-opacity:1"
             d="m 195,105 h 120 v 60 H 195 Z" /></g><g
           transform="matrix(2.9927006,0,0,2.9927006,589.56201,365.10947)"
           id="g112"><text
             id="text116"
             style="font-variant:normal;font-weight:normal;font-size:12px;font-family:Helvetica;-inkscape-font-specification:Helvetica;writing-mode:lr-tb;fill:#000000;fill-opacity:1;fill-rule:nonzero;stroke:none"
             transform="translate(21.96875,11)"><tspan
               id="tspan114"
               y="0"
               x="0 2.6660156 12.662109 19.335938 26.009766 32.683594 36.017578 42.691406 49.365234 55.365234 62.039062 68.712891">image based </tspan></text>
<text
             id="text120"
             style="font-variant:normal;font-weight:normal;font-size:12px;font-family:Helvetica;-inkscape-font-specification:Helvetica;writing-mode:lr-tb;fill:#000000;fill-opacity:1;fill-rule:nonzero;stroke:none"
             transform="translate(36.3125,25)"><tspan
               id="tspan118"
               y="0"
               x="0 3.3339844 10.007812 16.681641 20.015625 26.689453 30.685547 37.359375">features</tspan></text>
</g><g
           transform="matrix(2.9927006,0,0,2.9927006,1.4963503,1.4963503)"
           id="g122"><path
             id="path124"
             style="fill:#b1ddf0;fill-opacity:1;fill-rule:nonzero;stroke:none"
             d="M 463,40 H 590 V 170 H 463 Z" /><path
             id="path126"
             style="fill:none;stroke:#10739e;stroke-width:1;stroke-linecap:butt;stroke-linejoin:miter;stroke-miterlimit:10;stroke-dasharray:none;stroke-opacity:1"
             d="M 463,40 H 590 V 170 H 463 Z" /></g><g
           transform="matrix(2.9927006,0,0,2.9927006,1391.6057,212.48174)"
           id="g128"><text
             id="text132"
             style="font-variant:normal;font-weight:normal;font-size:12px;font-family:Helvetica;-inkscape-font-specification:Helvetica;writing-mode:lr-tb;fill:#000000;fill-opacity:1;fill-rule:nonzero;stroke:none"
             transform="translate(13.796875,11)"><tspan
               id="tspan130"
               y="0"
               x="0 9.9960938 16.669922 22.669922 29.34375 32.009766 38.683594 45.357422 48.691406 55.365234 62.039062 68.712891 72.708984 79.382812 82.048828 88.722656">Machine Learning</tspan></text>
<text
             id="text136"
             style="font-variant:normal;font-weight:normal;font-size:12px;font-family:Helvetica;-inkscape-font-specification:Helvetica;writing-mode:lr-tb;fill:#000000;fill-opacity:1;fill-rule:nonzero;stroke:none"
             transform="translate(31.484375,25)"><tspan
               id="tspan134"
               y="0"
               x="0 8.0039062 10.669922 17.34375 24.017578 28.013672 30.679688 34.013672 40.6875 50.683594 56.683594">Algorithms,</tspan></text>
<text
             id="text140"
             style="font-variant:normal;font-weight:normal;font-size:12px;font-family:Helvetica;-inkscape-font-specification:Helvetica;writing-mode:lr-tb;fill:#000000;fill-opacity:1;fill-rule:nonzero;stroke:none"
             transform="translate(5.140625,39)"><tspan
               id="tspan138"
               y="0"
               x="0 6.6738281 10.007812 16.681641 20.015625 23.349609 32.015625 38.689453 45.363281 52.037109 58.710938 68.707031 72.041016 79.371094 86.044922 90.041016 96.714844 102.71484 106.04883 109.38281">e.g. Random Forest, </tspan></text>
<text
             id="text144"
             style="font-variant:normal;font-weight:normal;font-size:12px;font-family:Helvetica;-inkscape-font-specification:Helvetica;writing-mode:lr-tb;fill:#000000;fill-opacity:1;fill-rule:nonzero;stroke:none"
             transform="translate(11.140625,53)"><tspan
               id="tspan142"
               y="0"
               x="0 7.3300781 14.003906 20.677734 24.011719 30.685547 34.681641 41.355469 44.689453 52.693359 59.367188 62.033203 68.707031 74.707031 78.041016 80.707031 87.380859 94.054688 97.388672">Feature Selection, </tspan></text>
<text
             id="text148"
             style="font-variant:normal;font-weight:normal;font-size:12px;font-family:Helvetica;-inkscape-font-specification:Helvetica;writing-mode:lr-tb;fill:#000000;fill-opacity:1;fill-rule:nonzero;stroke:none"
             transform="translate(34.5,67)"><tspan
               id="tspan146"
               y="0"
               x="0 8.0039062 16.007812 26.003906 29.337891 37.341797 45.345703">SVM/SVR</tspan></text>
</g><g
           transform="matrix(2.9927006,0,0,2.9927006,1.4963503,1.4963503)"
           id="g150"><path
             id="path152"
             style="fill:none;stroke:#000000;stroke-width:1;stroke-linecap:butt;stroke-linejoin:miter;stroke-miterlimit:10;stroke-dasharray:none;stroke-opacity:1"
             d="M 325,105 H 456.63" /><path
             id="path154"
             style="fill:#000000;fill-opacity:1;fill-rule:nonzero;stroke:none"
             d="m 461.88,105 -7,3.5 1.75,-3.5 -1.75,-3.5 z" /><path
             id="path156"
             style="fill:none;stroke:#000000;stroke-width:1;stroke-linecap:butt;stroke-linejoin:miter;stroke-miterlimit:10;stroke-dasharray:none;stroke-opacity:1"
             d="m 461.88,105 -7,3.5 1.75,-3.5 -1.75,-3.5 z" /></g><g
           transform="matrix(2.9927006,0,0,2.9927006,586.56934,610.51093)"
           id="g158"><text
             id="text162"
             style="font-variant:normal;font-weight:normal;font-size:12px;font-family:Helvetica;-inkscape-font-specification:Helvetica;writing-mode:lr-tb;fill:#000000;fill-opacity:1;fill-rule:nonzero;stroke:none"
             transform="translate(0.953125,11)"><tspan
               id="tspan160"
               y="0"
               x="0 3.3339844 10.007812 14.003906 17.337891 20.671875 24.667969 31.341797 34.007812 40.681641 43.347656 50.021484 56.695312 60.029297 63.363281 70.037109 76.037109 82.710938 85.376953 92.050781 98.724609 102.05859 104.72461 111.39844">for training, evaluation</tspan></text>
</g><g
           transform="matrix(2.9927006,0,0,2.9927006,1.4963503,1.4963503)"
           id="g164"><path
             id="path166"
             style="fill:#fff2cc;fill-opacity:1;fill-rule:nonzero;stroke:none"
             d="m 613,84 h 70 v 42 h -70 z" /><path
             id="path168"
             style="fill:none;stroke:#d6b656;stroke-width:1;stroke-linecap:butt;stroke-linejoin:miter;stroke-miterlimit:10;stroke-dasharray:none;stroke-opacity:1"
             d="m 613,84 h 70 v 42 h -70 z" /></g><g
           transform="matrix(2.9927006,0,0,2.9927006,1861.4597,296.27734)"
           id="g170"><text
             id="text174"
             style="font-variant:normal;font-weight:normal;font-size:12px;font-family:Helvetica;-inkscape-font-specification:Helvetica;writing-mode:lr-tb;fill:#000000;fill-opacity:1;fill-rule:nonzero;stroke:none"
             transform="translate(0.984375,11)"><tspan
               id="tspan172"
               y="0"
               x="0 6.6738281 10.669922 17.34375 24.017578 26.683594 32.683594 36.017578 38.683594 45.357422">prediction</tspan></text>
</g><g
           transform="matrix(2.9927006,0,0,2.9927006,1.4963503,1.4963503)"
           id="g176"><path
             id="path178"
             style="fill:none;stroke:#000000;stroke-width:1;stroke-linecap:butt;stroke-linejoin:miter;stroke-miterlimit:10;stroke-dasharray:none;stroke-opacity:1"
             d="m 590,105 h 16.63" /><path
             id="path180"
             style="fill:#000000;fill-opacity:1;fill-rule:nonzero;stroke:none"
             d="m 611.88,105 -7,3.5 1.75,-3.5 -1.75,-3.5 z" /><path
             id="path182"
             style="fill:none;stroke:#000000;stroke-width:1;stroke-linecap:butt;stroke-linejoin:miter;stroke-miterlimit:10;stroke-dasharray:none;stroke-opacity:1"
             d="m 611.88,105 -7,3.5 1.75,-3.5 -1.75,-3.5 z" /></g><g
           transform="matrix(2.9927006,0,0,2.9927006,559.63501,14.963503)"
           id="g184"><text
             id="text188"
             style="font-variant:normal;font-weight:normal;font-size:12px;font-family:Helvetica;-inkscape-font-specification:Helvetica;writing-mode:lr-tb;fill:#000000;fill-opacity:1;fill-rule:nonzero;stroke:none"
             transform="translate(0.796875,11)"><tspan
               id="tspan186"
               y="0"
               x="0 6.6738281 13.347656 17.34375 20.677734 24.011719 28.007812 34.681641 44.677734 51.351562 54.685547 58.019531 64.693359 71.367188 74.701172 81.375 85.371094 92.044922 95.378906 102.05273 108.05273 111.38672 115.38281 122.05664 128.05664 131.39062 134.05664 140.73047">per frame feature extraction</tspan></text>
</g><g
           transform="matrix(2.9927006,0,0,2.9927006,1.4963503,1.4963503)"
           id="g190"><path
             id="path192"
             style="fill:none;stroke:#000000;stroke-width:1;stroke-linecap:butt;stroke-linejoin:miter;stroke-miterlimit:10;stroke-dasharray:none;stroke-opacity:1"
             d="m 122,150 h 23 v -50 h 33.63" /><path
             id="path194"
             style="fill:#000000;fill-opacity:1;fill-rule:nonzero;stroke:none"
             d="m 183.88,100 -7,3.5 1.75,-3.5 -1.75,-3.5 z" /><path
             id="path196"
             style="fill:none;stroke:#000000;stroke-width:1;stroke-linecap:butt;stroke-linejoin:miter;stroke-miterlimit:10;stroke-dasharray:none;stroke-opacity:1"
             d="m 183.88,100 -7,3.5 1.75,-3.5 -1.75,-3.5 z" /><path
             id="path198"
             style="fill:#ffffff;fill-opacity:1;fill-rule:nonzero;stroke:none"
             d="m 2,130 h 120 v 40 H 2 Z" /><path
             id="path200"
             style="fill:#000000;fill-opacity:1;fill-rule:nonzero;stroke:none"
             d="m 8,129.5 h 3 v 1 H 8 Z m 6,0 h 3 v 1 h -3 z m 6,0 h 3 v 1 h -3 z m 6,0 h 3 v 1 h -3 z m 6,0 h 3 v 1 h -3 z m 6,0 h 3 v 1 h -3 z m 6,0 h 3 v 1 h -3 z m 6,0 h 3 v 1 h -3 z m 6,0 h 3 v 1 h -3 z m 6,0 h 3 v 1 h -3 z m 6,0 h 3 v 1 h -3 z m 6,0 h 3 v 1 h -3 z m 6,0 h 3 v 1 h -3 z m 6,0 h 3 v 1 h -3 z m 6,0 h 3 v 1 h -3 z m 6,0 h 3 v 1 h -3 z m 6,0 h 3 v 1 h -3 z m 6,0 h 3 v 1 h -3 z m 6,0 h 3 v 1 h -3 z m 6.5,0.5 v 3 h -1 v -3 z m 0,6 v 3 h -1 v -3 z m 0,6 v 3 h -1 v -3 z m 0,6 v 3 h -1 v -3 z m 0,6 v 3 h -1 v -3 z m 0,6 v 3 h -1 v -3 z m 0,6 v 3 h -1 v -3 z m -2.5,4.5 h -3 v -1 h 3 z m -6,0 h -3 v -1 h 3 z m -6,0 h -3 v -1 h 3 z m -6,0 h -3 v -1 h 3 z m -6,0 h -3 v -1 h 3 z m -6,0 h -3 v -1 h 3 z m -6,0 h -3 v -1 h 3 z m -6,0 h -3 v -1 h 3 z m -6,0 h -3 v -1 h 3 z m -6,0 h -3 v -1 h 3 z m -6,0 h -3 v -1 h 3 z m -6,0 h -3 v -1 h 3 z m -6,0 h -3 v -1 h 3 z m -6,0 h -3 v -1 h 3 z m -6,0 h -3 v -1 h 3 z m -6,0 h -3 v -1 h 3 z m -6,0 h -3 v -1 h 3 z m -6,0 h -3 v -1 h 3 z m -6,0 H 9 v -1 h 3 z m -6,0 H 3 v -1 H 6 Z M 1.5,168 v -3 h 1 v 3 z m 0,-6 v -3 h 1 v 3 z m 0,-6 v -3 h 1 v 3 z m 0,-6 v -3 h 1 v 3 z m 0,-6 v -3 h 1 v 3 z m 0,-6 v -3 h 1 v 3 z m 0,-6 v -2.5 H 5 v 1 H 2 V 130 h 0.5 v 2 z" /></g><g
           transform="matrix(2.9927006,0,0,2.9927006,38.905106,430.94888)"
           id="g202"><text
             id="text206"
             style="font-variant:normal;font-weight:normal;font-size:12px;font-family:Helvetica;-inkscape-font-specification:Helvetica;writing-mode:lr-tb;fill:#000000;fill-opacity:1;fill-rule:nonzero;stroke:none"
             transform="translate(0.296875,11)"><tspan
               id="tspan204"
               y="0"
               x="0 9.9960938 16.669922 23.34375 30.017578 33.351562 40.025391 43.359375 53.355469 60.029297 63.363281 70.037109 74.033203 80.707031 87.380859 90.714844">mode 0 meta-data</tspan></text>
</g><g
           transform="matrix(2.9927006,0,0,2.9927006,1.4963503,1.4963503)"
           id="g208"><path
             id="path210"
             style="fill:none;stroke:#000000;stroke-width:1;stroke-linecap:butt;stroke-linejoin:miter;stroke-miterlimit:10;stroke-dasharray:none;stroke-opacity:1"
             d="m 394,124 v 20 -14 24.63" /><path
             id="path212"
             style="fill:#000000;fill-opacity:1;fill-rule:nonzero;stroke:none"
             d="m 394,159.88 -3.5,-7 3.5,1.75 3.5,-1.75 z" /><path
             id="path214"
             style="fill:none;stroke:#000000;stroke-width:1;stroke-linecap:butt;stroke-linejoin:miter;stroke-miterlimit:10;stroke-dasharray:none;stroke-opacity:1"
             d="m 394,159.88 -3.5,-7 3.5,1.75 3.5,-1.75 z" /><path
             id="path216"
             style="fill:#dae8fc;fill-opacity:1;fill-rule:nonzero;stroke:none"
             d="m 339,84 h 110 v 40 H 339 Z" /><path
             id="path218"
             style="fill:none;stroke:#6c8ebf;stroke-width:1;stroke-linecap:butt;stroke-linejoin:miter;stroke-miterlimit:10;stroke-dasharray:none;stroke-opacity:1"
             d="m 339,84 h 110 v 40 H 339 Z" /></g><g
           transform="matrix(2.9927006,0,0,2.9927006,1047.4452,293.28467)"
           id="g220"><text
             id="text224"
             style="font-variant:normal;font-weight:normal;font-size:12px;font-family:Helvetica;-inkscape-font-specification:Helvetica;writing-mode:lr-tb;fill:#000000;fill-opacity:1;fill-rule:nonzero;stroke:none"
             transform="translate(0.625,11)"><tspan
               id="tspan222"
               y="0"
               x="0 3.3339844 10.007812 20.003906 26.677734 33.351562 37.347656 44.021484 46.6875 50.021484 56.695312 63.369141 70.042969 72.708984 75.375 82.048828">temporal pooling</tspan></text>
</g><g
           transform="matrix(2.9927006,0,0,2.9927006,14.963503,14.963503)"
           id="g226"><text
             id="text230"
             style="font-variant:normal;font-weight:normal;font-size:12px;font-family:Helvetica;-inkscape-font-specification:Helvetica;writing-mode:lr-tb;fill:#000000;fill-opacity:1;fill-rule:nonzero;stroke:none"
             transform="translate(0.625,11)"><tspan
               id="tspan228"
               y="0"
               x="0 2.6660156 9.3398438 16.013672 22.6875 26.021484 29.355469 35.355469 42.029297 48.703125 54.703125 57.369141 63.369141 69.369141 72.703125 76.037109 82.710938 86.707031 90.041016 100.03711 106.71094 113.38477 120.05859">input speciﬁc for model</tspan></text>
</g><g
           transform="matrix(2.9927006,0,0,2.9927006,1.4963503,1.4963503)"
           id="g232"><path
             id="path234"
             style="fill:#ffffff;fill-opacity:1;fill-rule:nonzero;stroke:none"
             d="m 379,154 c 0,-5.33 30,-5.33 30,0 v 22 c 0,5.33 -30,5.33 -30,0 z" /><path
             id="path236"
             style="fill:none;stroke:#000000;stroke-width:1;stroke-linecap:butt;stroke-linejoin:miter;stroke-miterlimit:10;stroke-dasharray:none;stroke-opacity:1"
             d="m 379,154 c 0,-5.33 30,-5.33 30,0 v 22 c 0,5.33 -30,5.33 -30,0 z" /><path
             id="path238"
             style="fill:none;stroke:#000000;stroke-width:1;stroke-linecap:butt;stroke-linejoin:miter;stroke-miterlimit:10;stroke-dasharray:none;stroke-opacity:1"
             d="m 379,154 c 0,4 30,4 30,0 m -30,2 c 0,4 30,4 30,0 m -30,2 c 0,4 30,4 30,0" /></g><g
           transform="matrix(2.9927006,0,0,2.9927006,1089.343,538.6861)"
           id="g240"><text
             id="text244"
             style="font-variant:normal;font-weight:normal;font-size:10px;font-family:Helvetica;-inkscape-font-specification:Helvetica;writing-mode:lr-tb;fill:#000000;fill-opacity:1;fill-rule:nonzero;stroke:none"
             transform="translate(0.859375,11)"><tspan
               id="tspan242"
               y="0"
               x="0 5 7.7783203 13.339844 16.669922 22.231445 27.792969 30.571289 36.132812 41.132812 43.911133 46.132812 51.132812 56.694336">stored as json</tspan></text>
</g></g></g></g></svg>